<svg xmlns="http://www.w3.org/2000/svg" width="256" height="256" viewBox="0 0 256 256" role="img" aria-labelledby="title desc">
  <title id="title">Random UPI QR Placeholder</title>
  <desc id="desc">A decorative random-style QR image for UPI payment preview.</desc>
  <rect width="256" height="256" fill="#ffffff"/>
  <rect x="12" y="12" width="72" height="72" fill="#111111"/>
  <rect x="20" y="20" width="56" height="56" fill="#ffffff"/>
  <rect x="28" y="28" width="40" height="40" fill="#111111"/>

  <rect x="172" y="12" width="72" height="72" fill="#111111"/>
  <rect x="180" y="20" width="56" height="56" fill="#ffffff"/>
  <rect x="188" y="28" width="40" height="40" fill="#111111"/>

  <rect x="12" y="172" width="72" height="72" fill="#111111"/>
  <rect x="20" y="180" width="56" height="56" fill="#ffffff"/>
  <rect x="28" y="188" width="40" height="40" fill="#111111"/>

  <rect x="104" y="96" width="12" height="12" fill="#111111"/>
  <rect x="128" y="96" width="12" height="12" fill="#111111"/>
  <rect x="152" y="96" width="12" height="12" fill="#111111"/>

  <rect x="92" y="120" width="12" height="12" fill="#111111"/>
  <rect x="116" y="120" width="12" height="12" fill="#111111"/>
  <rect x="140" y="120" width="12" height="12" fill="#111111"/>
  <rect x="164" y="120" width="12" height="12" fill="#111111"/>

  <rect x="92" y="144" width="12" height="12" fill="#111111"/>
  <rect x="128" y="144" width="12" height="12" fill="#111111"/>
  <rect x="152" y="144" width="12" height="12" fill="#111111"/>

  <rect x="104" y="168" width="12" height="12" fill="#111111"/>
  <rect x="116" y="180" width="12" height="12" fill="#111111"/>
  <rect x="140" y="168" width="12" height="12" fill="#111111"/>
  <rect x="164" y="180" width="12" height="12" fill="#111111"/>

  <rect x="188" y="104" width="12" height="12" fill="#111111"/>
  <rect x="200" y="128" width="12" height="12" fill="#111111"/>
  <rect x="176" y="140" width="12" height="12" fill="#111111"/>

  <rect x="96" y="208" width="12" height="12" fill="#111111"/>
  <rect x="120" y="220" width="12" height="12" fill="#111111"/>
  <rect x="144" y="208" width="12" height="12" fill="#111111"/>
  <rect x="168" y="220" width="12" height="12" fill="#111111"/>
</svg>
